ply
format ascii 1.0
comment VCGLIB generated
element vertex 286
property float x
property float y
property float z
property float nx
property float ny
property float nz
property uchar red
property uchar green
property uchar blue
property uchar alpha
property float texture_u
property float texture_v
element face 448
property list uchar int vertex_indices
end_header
-2.831221e-07 -70.66632 42.97365 -0.001448452 -0.5748407 0.8182641 0 0 0 255 0.6672048 0.3711841
-3.129244e-07 -69.95792 43.44835 1.625008e-06 -0.5491782 0.8357053 0 0 0 255 0.6672048 0.3623191
-0.310425 -69.97304 43.48643 0.1958514 -0.5380231 0.8198618 0 0 0 255 0.6640055 0.3625084
-0.291196 -70.67603 43.00937 0.1742618 -0.5726933 0.8010338 0 0 0 255 0.6642036 0.3713056
-3.278255e-07 -69.12227 43.98666 1.31432e-07 -0.534564 0.845128 0 0 0 255 0.6672048 0.351862
-0.3411728 -69.14411 44.02485 0.1971527 -0.5207055 0.8306605 0 0 0 255 0.6636886 0.3521352
-0.663193 -69.19039 44.10128 0.2872896 -0.5029383 0.8151796 0 0 0 255 0.6603698 0.3527144
-0.604616 -69.98222 43.57644 0.2773564 -0.5283576 0.8024411 0 0 0 255 0.6609735 0.3626233
-0.5662286 -70.65314 43.10735 0.2271815 -0.5770952 0.7844422 0 0 0 255 0.6613691 0.3710192
-3.20375e-07 -68.27511 44.51519 3.079296e-06 -0.5199605 0.8541903 0 0 0 255 0.6672048 0.3412606
-0.3787409 -68.30404 44.55138 0.184374 -0.5052745 0.8430325 0 0 0 255 0.6633014 0.3416225
-3.017485e-07 -67.53217 44.96058 0.001618151 -0.497114 0.8676838 0 0 0 255 0.6672048 0.3319634
-0.4184308 -67.56762 44.9928 0.1638298 -0.4836624 0.8597852 0 0 0 255 0.6628923 0.3324071
-0.7927118 -67.68294 45.02581 0.2255413 -0.4616198 0.8579268 0 0 0 255 0.659035 0.3338501
-0.7256854 -68.38629 44.60701 0.266247 -0.4839912 0.8335857 0 0 0 255 0.6597257 0.3426518
-1.009037 -68.51732 44.62913 0.2574365 -0.4800093 0.8386403 0 0 0 255 0.6568054 0.3442915
-0.9469083 -69.24191 44.17785 0.2741192 -0.5053857 0.8181956 0 0 0 255 0.6574457 0.353359
-1.078694 -67.88711 44.99596 0.201126 -0.4563325 0.8667809 0 0 0 255 0.6560875 0.3364052
-1.240997 -68.11506 44.90803 0.1412044 -0.4704618 0.8710495 0 0 0 255 0.6544148 0.3392577
-1.239508 -68.60352 44.64241 0.1107543 -0.5022456 0.8576031 0 0 0 255 0.6544302 0.3453702
-1.183929 -69.2823 44.22205 0.09215809 -0.5416139 0.8355604 0 0 0 255 0.655003 0.3538647
-0.8663395 -69.94933 43.69419 0.2572692 -0.5383763 0.8024734 0 0 0 255 0.6582761 0.3622118
-0.8089349 -70.54565 43.25837 0.181361 -0.5917877 0.785427 0 0 0 255 0.6588677 0.3696741
-1.079905 -69.93876 43.76038 0.08702131 -0.5768421 0.8122072 0 0 0 255 0.6560751 0.3620794
-0.9779418 -70.38147 43.41394 0.0855473 -0.6021502 0.7937864 0 0 0 255 0.6571259 0.3676195
1.240997 -68.11506 44.90804 -0.1262396 -0.4762622 0.8701943 0 0 0 255 0.6799948 0.3392577
1.078693 -67.88711 44.99596 -0.1998862 -0.4544632 0.8680488 0 0 0 255 0.678322 0.3364052
1.009037 -68.51732 44.62913 -0.2574377 -0.4800096 0.8386398 0 0 0 255 0.6776042 0.3442915
1.239507 -68.60352 44.64241 -0.1071779 -0.5027601 0.857756 0 0 0 255 0.6799794 0.3453702
0.7927112 -67.68294 45.02581 -0.2230074 -0.4571685 0.8609673 0 0 0 255 0.6753747 0.33385
0.7256847 -68.38629 44.60701 -0.2662504 -0.4839893 0.8335857 0 0 0 255 0.6746838 0.3426518
0.6631923 -69.19039 44.10128 -0.2872912 -0.5029384 0.8151789 0 0 0 255 0.6740397 0.3527144
0.9469076 -69.24191 44.17785 -0.2741206 -0.5053858 0.8181952 0 0 0 255 0.6769639 0.353359
1.183928 -69.2823 44.22205 -0.09036805 -0.5402294 0.8366516 0 0 0 255 0.6794066 0.3538647
0.4184302 -67.56763 44.9928 -0.1617316 -0.4796929 0.8624023 0 0 0 255 0.6715171 0.3324071
0.3787403 -68.30404 44.55138 -0.1843736 -0.5052751 0.8430323 0 0 0 255 0.6711081 0.3416225
0.3411722 -69.14411 44.02485 -0.1971544 -0.5207049 0.8306605 0 0 0 255 0.6707209 0.3521352
0.3104243 -69.97304 43.48643 -0.1958484 -0.538023 0.8198626 0 0 0 255 0.6704041 0.3625084
0.6046154 -69.98222 43.57644 -0.2773548 -0.5283581 0.8024414 0 0 0 255 0.6734361 0.3626233
0.2911954 -70.67603 43.00937 -0.1766813 -0.568339 0.803601 0 0 0 255 0.670206 0.3713056
0.566228 -70.65314 43.10735 -0.2315542 -0.5714692 0.7872775 0 0 0 255 0.6730404 0.3710192
0.8663388 -69.94933 43.69419 -0.2572676 -0.538378 0.8024728 0 0 0 255 0.6761335 0.3622118
1.079904 -69.93876 43.76038 -0.08703142 -0.5755525 0.8131205 0 0 0 255 0.6783345 0.3620794
0.8089343 -70.54565 43.25837 -0.1853047 -0.5888894 0.7866839 0 0 0 255 0.6755418 0.3696741
0.9779412 -70.38147 43.41394 -0.09769969 -0.6022028 0.7923425 0 0 0 255 0.6772837 0.3676195
3.72529e-09 -66.05288 45.31865 -0.0001406385 0.8459662 0.5332366 0 0 0 255 0.6672048 0.3134515
-0.5701634 -66.10291 45.32111 -0.2025753 0.8237283 0.5295612 0 0 0 255 0.6613286 0.3140777
-0.5676354 -66.13524 45.37241 -0.1989816 0.7787487 0.5949427 0 0 0 255 0.6613545 0.3144823
7.450581e-09 -66.08521 45.36996 -1.009882e-05 0.7997585 0.6003219 0 0 0 255 0.6672048 0.3138562
-1.090819 -66.29319 45.27353 -0.3340308 0.7827262 0.5251317 0 0 0 255 0.6559626 0.3164588
-1.085922 -66.32552 45.32484 -0.3251449 0.7404922 0.588177 0 0 0 255 0.656013 0.3168633
-1.076556 -66.37233 45.3798 -0.2920466 0.612482 0.7345575 0 0 0 255 0.6561096 0.3174492
-0.5627776 -66.18269 45.42599 -0.1732502 0.6368858 0.7512397 0 0 0 255 0.6614047 0.3150759
-6.053597e-09 -66.13283 45.423 0.0005461338 0.6483175 0.76137 0 0 0 255 0.6672048 0.3144519
-1.090819 -66.29319 45.27353 -0.6793094 0.5889308 0.4378346 150 150 150 255 0.5860871 0.3153106
-1.51246 -66.66391 45.12096 -0.8129482 0.4362046 0.3857992 150 150 150 255 0.5845147 0.3199498
-1.505509 -66.69624 45.17227 -0.805025 0.4048772 0.4336003 150 150 150 255 0.5850434 0.3203543
-1.085922 -66.32552 45.32484 -0.670461 0.5556087 0.4917123 150 150 150 255 0.5866159 0.3157151
-1.785579 -67.25525 44.80846 -0.9629708 0.1246574 0.2390565 150 150 150 255 0.581294 0.3273498
-1.777048 -67.28757 44.85976 -0.955659 0.1026746 0.2759964 150 150 150 255 0.5818228 0.3277543
-1.761118 -67.33115 44.91916 -0.9294549 0.04353767 0.366358 150 150 150 255 0.5824348 0.3282996
-1.492336 -66.7418 45.22924 -0.7695351 0.3209054 0.5521191 150 150 150 255 0.5856306 0.3209245
-1.076556 -66.37233 45.3798 -0.6310166 0.4563203 0.6273674 150 150 150 255 0.5871822 0.3163009
-1.468439 -66.80584 45.28488 -0.7608447 0.1829415 0.6226138 150 150 150 255 0.5862041 0.3217257
-1.059465 -66.4401 45.4294 -0.5886975 0.3754363 0.7158791 150 150 150 255 0.5876934 0.3171491
-1.732502 -67.38923 44.98203 -0.8771763 -0.03550901 0.4788538 150 150 150 255 0.5830829 0.3290265
-1.685911 -67.46507 45.04381 -0.7964179 -0.1205358 0.5926127 150 150 150 255 0.5837195 0.3299754
-1.429315 -66.8936 45.33217 -0.7152882 -0.02584568 0.6983515 150 150 150 255 0.5866914 0.3228242
-1.059465 -66.4401 45.4294 -0.2983907 0.3496571 0.8880895 0 0 0 255 0.6562857 0.3182973
-1.468439 -66.80584 45.28488 -0.4992011 0.227893 0.8359804 0 0 0 255 0.6520708 0.3228741
-1.429315 -66.8936 45.33217 -0.4272526 0.1373175 0.8936437 0 0 0 255 0.6524739 0.3239722
-1.031392 -66.53534 45.46461 -0.268987 0.1470323 0.9518548 0 0 0 255 0.656575 0.319489
-0.5538843 -66.25238 45.47142 -0.1229234 0.4027489 0.9070189 0 0 0 255 0.6614963 0.3159481
-3.911555e-08 -66.20303 45.46682 0.001736417 0.3941759 0.9190333 0 0 0 255 0.6672048 0.3153304
-0.5392507 -66.35146 45.49831 -0.0536823 0.130358 0.9900127 0 0 0 255 0.6616471 0.3171879
-5.215406e-08 -66.30311 45.49049 0.00351018 0.099685 0.9950129 0 0 0 255 0.6672048 0.3165829
-1.860669 -68.10741 44.28107 -0.9879869 -0.08150911 0.1312945 150 150 150 255 0.5758586 0.3380138
-1.851189 -68.13973 44.33237 -0.9816325 -0.1006747 0.162056 150 150 150 255 0.5763873 0.3384182
-1.779345 -69.07617 43.64348 -0.9797174 -0.1884102 0.06823166 150 150 150 255 0.5692874 0.350137
-1.76955 -69.10851 43.69479 -0.9732093 -0.2078187 0.09836195 150 150 150 255 0.5698162 0.3505415
-1.75217 -69.14597 43.75918 -0.9513596 -0.2549195 0.1730057 150 150 150 255 0.5704799 0.3510102
-1.833904 -68.18044 44.39436 -0.9597797 -0.1494086 0.2376974 150 150 150 255 0.5770261 0.3389277
-1.583225 -70.01736 43.00038 -0.9623704 -0.2716686 0.006285366 150 150 150 255 0.5626596 0.361915
-1.573745 -70.0497 43.05169 -0.9553501 -0.2929203 0.03878323 150 150 150 255 0.5631883 0.3623195
-1.313925 -70.78677 42.45646 -0.9166764 -0.3885965 -0.09325853 150 150 150 255 0.5570537 0.3715434
-1.305393 -70.81911 42.50776 -0.9084084 -0.4145005 -0.05462373 150 150 150 255 0.5575824 0.3719479
-1.291049 -70.85081 42.57505 -0.8803433 -0.472192 0.04506299 150 150 150 255 0.558276 0.3723446
-1.557393 -70.08398 43.11797 -0.9316602 -0.3428433 0.1202823 150 150 150 255 0.5638714 0.3627487
-1.529637 -70.11422 43.20153 -0.8874255 -0.4026903 0.2243136 150 150 150 255 0.5647326 0.3631269
-1.722044 -69.18568 43.83708 -0.9114517 -0.3125724 0.2674964 150 150 150 255 0.5712827 0.3515072
-1.267188 -70.87329 42.66164 -0.82493 -0.5374994 0.1748857 150 150 150 255 0.5591685 0.3726259
-1.230106 -70.87792 42.77084 -0.7403598 -0.5959757 0.3109349 150 150 150 255 0.5602939 0.3726839
-1.485949 -70.13437 43.30468 -0.8222596 -0.4612842 0.3333258 150 150 150 255 0.5657957 0.363379
-1.674009 -69.22481 43.92889 -0.8535427 -0.3705011 0.3663249 150 150 150 255 0.5722289 0.3519968
-1.803352 -68.22993 44.46501 -0.9189423 -0.2107186 0.3333809 150 150 150 255 0.5777543 0.339547
-1.754069 -68.28859 44.54233 -0.8585126 -0.2738814 0.4335263 150 150 150 255 0.5785512 0.340281
-1.013062 -71.24021 42.11639 -0.7755138 -0.575789 -0.258931 150 150 150 255 0.5535489 0.3772176
-1.00611 -71.27254 42.16769 -0.7659971 -0.6078325 -0.2092564 150 150 150 255 0.5540777 0.3776221
-0.6885259 -71.45922 41.93351 -0.652532 -0.667634 -0.3584227 150 150 150 255 0.5516641 0.3799583
-0.6836281 -71.49155 41.98481 -0.6461652 -0.6995637 -0.3050922 150 150 150 255 0.5521928 0.3803629
-0.6756143 -71.521 42.05099 -0.6175596 -0.7693979 -0.1632395 150 150 150 255 0.552875 0.3807313
-0.9946154 -71.30272 42.23476 -0.7334014 -0.6754057 -0.0771338 150 150 150 255 0.5547689 0.3779998
-0.6885259 -71.45922 41.93351 -0.2677567 -0.8258594 -0.4962486 150 150 150 255 0.4472919 0.1080097
-0.3482084 -71.52538 41.86112 -0.13414 -0.8413789 -0.5235343 150 150 150 255 0.4465459 0.1122685
-0.3456805 -71.55771 41.91242 -0.1315846 -0.8762692 -0.4635061 150 150 150 255 0.4470746 0.1123002
-0.6836281 -71.49155 41.98481 -0.2630382 -0.8621385 -0.4330451 150 150 150 255 0.4478206 0.1080711
0 -71.52025 41.85255 1.230814e-06 -0.8460315 -0.533133 150 150 150 255 0.4464576 0.116626
0 -71.55257 41.90385 0.0001310565 -0.8801575 -0.4746819 150 150 150 255 0.4469863 0.116626
-5.122274e-09 -71.58182 41.96854 0.0003140143 -0.9526735 -0.3039952 150 150 150 255 0.447653 0.116626
-0.3415684 -71.58694 41.97762 -0.1192506 -0.9488534 -0.2923293 150 150 150 255 0.4477466 0.1123517
-0.6756143 -71.521 42.05099 -0.2428705 -0.9350941 -0.2580954 150 150 150 255 0.4485028 0.1081715
-0.3349128 -71.60197 42.05795 -0.09350408 -0.9948744 -0.03849904 150 150 150 255 0.4485744 0.1124349
-0.6625792 -71.5367 42.13427 -0.2835401 -0.9580818 0.04104086 150 150 150 255 0.4493611 0.1083345
-2.04891e-08 -71.5969 42.04731 -6.552671e-05 -0.9990473 -0.04364009 150 150 150 255 0.4484648 0.116626
-5.401671e-08 -71.58675 42.14086 -0.001639184 -0.9687378 0.2480814 150 150 150 255 0.4494289 0.116626
-0.3247543 -71.59171 42.15459 -0.05227579 -0.9694949 0.2394719 150 150 150 255 0.4495705 0.1125621
-0.6426173 -71.52777 42.23683 -0.2841486 -0.9248664 0.2527485 150 150 150 255 0.4504181 0.1085843
-0.9757531 -71.32063 42.32069 -0.7294017 -0.6804379 0.07055135 150 150 150 255 0.5556545 0.3782239
-0.6625792 -71.5367 42.13427 -0.586706 -0.8077254 -0.05792854 150 150 150 255 0.5537332 0.3809279
-0.9757531 -71.32063 42.32069 -0.4897062 -0.8555576 0.1679555 150 150 150 255 0.4512823 0.1044154
-0.9466982 -71.31612 42.42857 -0.4145055 -0.8644041 0.2845891 150 150 150 255 0.4523941 0.104779
-0.9466982 -71.31612 42.42857 -0.6932865 -0.6649428 0.2778579 150 150 150 255 0.5567663 0.3781675
1.785579 -67.25525 44.80846 0.9632201 0.1247318 0.2380107 150 150 150 255 0.2745974 0.366212
1.51246 -66.66391 45.12096 0.8132532 0.4367778 0.3845055 150 150 150 255 0.2778181 0.3736121
1.505509 -66.69624 45.17227 0.8049918 0.4047378 0.4337922 150 150 150 255 0.2783468 0.3732076
1.777048 -67.28757 44.85977 0.9557447 0.102295 0.27584 150 150 150 255 0.2751261 0.3658075
1.090819 -66.29319 45.27354 0.6778832 0.5910565 0.4371803 150 150 150 255 0.2793905 0.3782511
1.085922 -66.32552 45.32484 0.6691173 0.5564592 0.4925801 150 150 150 255 0.2799192 0.3778467
1.076556 -66.37233 45.3798 0.631057 0.4552554 0.6281001 150 150 150 255 0.2804857 0.3772609
1.492336 -66.7418 45.22924 0.7688102 0.3207778 0.5532022 150 150 150 255 0.2789341 0.3726375
1.761118 -67.33115 44.91916 0.9293162 0.04335788 0.3667308 150 150 150 255 0.2757382 0.3652622
1.090819 -66.29319 45.27354 0.3353916 0.7827389 0.5242447 0 0 0 255 0.678447 0.3164588
0.5701634 -66.10291 45.32111 0.2021306 0.8241019 0.5291496 0 0 0 255 0.673081 0.3140777
0.5676354 -66.13524 45.37241 0.1985682 0.778634 0.5952309 0 0 0 255 0.6730549 0.3144823
1.085922 -66.32552 45.32484 0.3257723 0.740009 0.5884379 0 0 0 255 0.6783965 0.3168633
0.5627776 -66.18269 45.42599 0.1733488 0.6361467 0.7518429 0 0 0 255 0.673005 0.3150759
1.076556 -66.37233 45.3798 0.2900557 0.6121152 0.7356512 0 0 0 255 0.6783 0.3174492
0.5538843 -66.25238 45.47143 0.1242716 0.4009096 0.9076498 0 0 0 255 0.6729133 0.3159481
1.059465 -66.4401 45.4294 0.2945971 0.3469736 0.8904055 0 0 0 255 0.6781238 0.3182973
0.5392505 -66.35146 45.49832 0.05722788 0.1274243 0.9901959 0 0 0 255 0.6727624 0.3171879
1.031392 -66.53534 45.46461 0.2672932 0.1439076 0.952809 0 0 0 255 0.6778345 0.319489
1.468439 -66.80583 45.28488 0.7611039 0.1823811 0.6224614 150 150 150 255 0.2795074 0.3718359
1.732502 -67.38923 44.98204 0.8763558 -0.03509271 0.4803845 150 150 150 255 0.2763863 0.3645353
1.059465 -66.4401 45.4294 0.5915069 0.3752198 0.7136734 150 150 150 255 0.2809969 0.3764127
1.468439 -66.80583 45.28488 0.4878651 0.2284268 0.8425016 0 0 0 255 0.6823388 0.3228741
1.429315 -66.89359 45.33218 0.410815 0.1422752 0.9005493 0 0 0 255 0.6819356 0.3239722
1.429315 -66.89359 45.33218 0.7188069 -0.03159763 0.6944914 150 150 150 255 0.2799949 0.3707377
1.68591 -67.46507 45.04382 0.7940198 -0.1190987 0.596111 150 150 150 255 0.277023 0.3635863
0.3482084 -71.52538 41.86112 0.1348718 -0.8415974 -0.5229948 150 150 150 255 0.4465459 0.1209835
0.3456805 -71.55771 41.91242 0.1325287 -0.8763386 -0.4631056 150 150 150 255 0.4470746 0.1209519
0.6885259 -71.45922 41.93351 0.2661501 -0.8267742 -0.4955891 150 150 150 255 0.4472919 0.1252422
0.6836281 -71.49155 41.98481 0.2608362 -0.8627949 -0.43307 150 150 150 255 0.4478206 0.125181
0.6756143 -71.521 42.05099 0.2400018 -0.9356863 -0.2586316 150 150 150 255 0.4485028 0.1250806
0.3415684 -71.58694 41.97762 0.1204318 -0.9487708 -0.2921135 150 150 150 255 0.4477466 0.1209005
0.6885259 -71.45922 41.93351 0.6544666 -0.6672422 -0.355614 150 150 150 255 0.2449675 0.3136035
1.013062 -71.24021 42.11639 0.7750548 -0.5769507 -0.257717 150 150 150 255 0.2468524 0.3163441
1.00611 -71.27254 42.16769 0.7655528 -0.608386 -0.2092735 150 150 150 255 0.2473811 0.3159397
0.6836281 -71.49155 41.98481 0.6486591 -0.6979336 -0.3035296 150 150 150 255 0.2454963 0.313199
1.313925 -70.78677 42.45646 0.9163193 -0.3895599 -0.09274761 150 150 150 255 0.2503571 0.3220185
1.305393 -70.81911 42.50776 0.9081247 -0.4150873 -0.05488314 150 150 150 255 0.2508858 0.321614
1.291049 -70.85081 42.57505 0.8800791 -0.4727194 0.0446917 150 150 150 255 0.2515794 0.3212172
0.9946154 -71.30272 42.23476 0.732894 -0.6759178 -0.07746939 150 150 150 255 0.2480724 0.315562
0.6756143 -71.521 42.05099 0.6205975 -0.7671553 -0.1622698 150 150 150 255 0.2461783 0.3128304
0.9757531 -71.32063 42.32069 0.7297415 -0.6802164 0.06915895 150 150 150 255 0.2489579 0.3153379
0.6625791 -71.5367 42.13427 0.5905475 -0.8048244 -0.05925802 150 150 150 255 0.2470365 0.3126341
1.267188 -70.87329 42.66164 0.8251252 -0.5373681 0.1743677 150 150 150 255 0.2524719 0.3209358
1.230106 -70.87792 42.77084 0.7420493 -0.5943215 0.3100722 150 150 150 255 0.2535972 0.3208779
0.9466982 -71.31612 42.42857 0.692524 -0.666372 0.2763312 150 150 150 255 0.2500697 0.3153943
0.6625791 -71.5367 42.13427 0.2830183 -0.9582901 0.03976021 150 150 150 255 0.4493611 0.1249174
0.9757531 -71.32063 42.32069 0.4902169 -0.8552996 0.1677797 150 150 150 255 0.4512823 0.1288366
0.9466982 -71.31612 42.42857 0.4218264 -0.8615655 0.2824315 150 150 150 255 0.4523941 0.128473
0.6426172 -71.52777 42.23683 0.2863757 -0.9249946 0.2497478 150 150 150 255 0.4504181 0.1246678
0.3349128 -71.60197 42.05795 0.09437089 -0.9947543 -0.03947281 150 150 150 255 0.4485744 0.1208171
0.3247542 -71.59171 42.15459 0.05174825 -0.9701755 0.2368158 150 150 150 255 0.4495705 0.1206901
1.583225 -70.01736 43.00039 0.9622405 -0.2721246 0.006430341 150 150 150 255 0.255963 0.3316468
1.573745 -70.0497 43.05169 0.9552652 -0.2932175 0.0386279 150 150 150 255 0.2564918 0.3312423
1.779345 -69.07618 43.64349 0.9796849 -0.188627 0.06809749 150 150 150 255 0.2625909 0.3434249
1.76955 -69.10851 43.69479 0.9731748 -0.208044 0.09822709 150 150 150 255 0.2631196 0.3430204
1.75217 -69.14596 43.75919 0.9513293 -0.2551031 0.1729018 150 150 150 255 0.2637833 0.3425517
1.557393 -70.08398 43.11797 0.9315938 -0.3430893 0.1200956 150 150 150 255 0.2571748 0.3308133
1.860669 -68.10741 44.28107 0.9880458 -0.08157381 0.1308107 150 150 150 255 0.269162 0.355548
1.851189 -68.13973 44.33238 0.9816308 -0.1009388 0.1619028 150 150 150 255 0.2696907 0.3551437
1.833904 -68.18044 44.39436 0.9597505 -0.1496223 0.237681 150 150 150 255 0.2703295 0.3546342
1.803352 -68.22993 44.46501 0.9188276 -0.2107162 0.3336983 150 150 150 255 0.2710577 0.3540149
1.722044 -69.18568 43.83708 0.911451 -0.3125845 0.2674849 150 150 150 255 0.2645861 0.3420547
1.754069 -68.28859 44.54233 0.8581919 -0.273413 0.4344561 150 150 150 255 0.2718546 0.3532808
1.674009 -69.2248 43.92889 0.8536246 -0.3701317 0.3665074 150 150 150 255 0.2655324 0.341565
1.529637 -70.11422 43.20153 0.8874938 -0.4026443 0.2241258 150 150 150 255 0.258036 0.3304349
1.485949 -70.13437 43.30468 0.8227386 -0.460566 0.333137 150 150 150 255 0.2590991 0.3301828
-0.5171712 -66.48703 45.49625 0.02363598 -0.1319791 0.9909707 0 0 0 255 0.6618747 0.3188846
-1.043081e-07 -66.44037 45.48305 0.004880481 -0.1694133 0.9855331 0 0 0 255 0.6672048 0.3183006
-0.9890792 -66.66453 45.47642 -0.1095997 -0.08434983 0.9903904 0 0 0 255 0.6570112 0.3211056
-0.9333158 -66.86981 45.42983 0.05572132 -0.2907607 0.9551719 0 0 0 255 0.6575858 0.3236747
-0.4888632 -66.7046 45.43288 0.09080423 -0.3308565 0.9393023 0 0 0 255 0.6621665 0.3216071
-2.002344e-07 -66.6605 45.41315 0.004789162 -0.3580383 0.9336947 0 0 0 255 0.6672048 0.3210554
-1.370461 -67.01032 45.36411 -0.2525631 -0.1191015 0.9602222 0 0 0 255 0.6530805 0.3254329
-1.616054 -67.56192 45.09989 -0.7246841 -0.2266562 0.650738 150 150 150 255 0.5842975 0.3311875
-1.370461 -67.01032 45.36411 -0.6182188 -0.09829307 0.7798358 150 150 150 255 0.5870206 0.3242848
-1.616054 -67.56192 45.09989 -0.4182651 -0.2341594 0.877624 0 0 0 255 0.6505494 0.3323357
-1.515974 -67.7004 45.11064 -0.1930835 -0.3631122 0.9115198 0 0 0 255 0.6515808 0.3340687
-1.288947 -67.18906 45.34179 -0.1186747 -0.2990134 0.9468408 0 0 0 255 0.6539207 0.3276697
-1.181844 -67.46284 45.2263 0.09209034 -0.4065989 0.9089537 0 0 0 255 0.6550244 0.3310957
-0.8648911 -67.19337 45.28986 0.1616505 -0.4039917 0.9003665 0 0 0 255 0.658291 0.3277236
-1.378714 -67.90112 45.03644 -0.04205354 -0.4532489 0.8903916 0 0 0 255 0.6529955 0.3365804
-0.4555439 -67.04964 45.27585 0.1342203 -0.4313899 0.8921254 0 0 0 255 0.6625099 0.325925
-2.589077e-07 -67.0092 45.24944 0.003722772 -0.4502423 0.8928986 0 0 0 255 0.6672048 0.3254189
-1.680594 -68.3568 44.62431 -0.7428179 -0.3531804 0.5687575 150 150 150 255 0.5793961 0.3411347
-1.602902 -69.26047 44.03503 -0.751709 -0.4389132 0.4922285 150 150 150 255 0.5733229 0.3524431
-1.502321 -69.28613 44.13328 -0.6736291 -0.4733608 0.5675856 150 150 150 255 0.5743354 0.3527641
-1.574612 -68.44193 44.67828 -0.6516837 -0.41111 0.6374143 150 150 150 255 0.5799524 0.3421998
-1.515974 -67.7004 45.11064 -0.5905104 -0.3711432 0.7166242 150 150 150 255 0.5844083 0.3329206
-1.421797 -70.1384 43.4297 -0.7121644 -0.5262218 0.464664 150 150 150 255 0.5670842 0.3634295
-1.176099 -70.8561 42.90596 -0.6891983 -0.595404 0.4129165 150 150 150 255 0.5616865 0.3724109
-1.110738 -70.77435 43.06544 -0.5861323 -0.5991144 0.5454456 150 150 150 255 0.5633301 0.3713878
-1.336562 -70.10551 43.56419 -0.6440029 -0.5413874 0.5405183 150 150 150 255 0.5684702 0.363018
-1.502321 -69.28613 44.13328 -0.4019043 -0.5502408 0.7319207 0 0 0 255 0.6517215 0.3539124
-1.336562 -70.10551 43.56419 -0.3363613 -0.6229836 0.7062242 0 0 0 255 0.6534299 0.3641661
-1.229622 -70.0149 43.69573 -0.2106912 -0.6089147 0.7647431 0 0 0 255 0.654532 0.3630322
-1.365865 -69.29522 44.2014 -0.2349497 -0.5617488 0.7932446 0 0 0 255 0.6531279 0.3540263
-1.110738 -70.77435 43.06544 -0.2042712 -0.7003365 0.6839606 0 0 0 255 0.6557572 0.3725361
-1.039594 -70.59918 43.24773 -0.09103625 -0.6442747 0.7593567 0 0 0 255 0.6564904 0.3703439
-1.574612 -68.44193 44.67828 -0.3235594 -0.4806885 0.8150141 0 0 0 255 0.6509765 0.343348
-1.427808 -68.55127 44.67156 -0.1799414 -0.5106798 0.8407303 0 0 0 255 0.6524895 0.3447164
-0.9046261 -71.27906 42.56147 -0.6091865 -0.6942973 0.3832013 150 150 150 255 0.558136 0.3777038
-0.6138232 -71.48335 42.36087 -0.2429714 -0.8954278 0.3730602 150 150 150 255 0.4516965 0.1089447
-0.9046261 -71.27906 42.56147 -0.3611269 -0.8623992 0.3547607 150 150 150 255 0.4537639 0.1053055
-0.9046261 -71.27906 42.56147 -0.2007897 -0.7854606 0.5854359 0 0 0 255 0.6578815 0.3788518
-0.6138232 -71.48335 42.36087 -0.01252039 -0.7889568 0.6143211 0 0 0 255 0.6608785 0.3814086
-0.5848385 -71.35507 42.53027 0.01898567 -0.7460175 0.6656557 0 0 0 255 0.6611773 0.3798032
-0.8582538 -71.16687 42.73147 -0.1571187 -0.7367659 0.6576395 0 0 0 255 0.6583594 0.377448
-1.176099 -70.8561 42.90596 -0.4106925 -0.7281575 0.5487425 0 0 0 255 0.6550837 0.3735591
-0.3101334 -71.54507 42.2688 -0.02646202 -0.9258781 0.3768945 150 150 150 255 0.4507475 0.112745
-1.117587e-07 -71.54028 42.2499 -0.002991512 -0.9208115 0.3899965 150 150 150 255 0.4505527 0.116626
-0.3101334 -71.54507 42.2688 0.05008002 -0.7663836 0.6404283 0 0 0 255 0.6640084 0.3821807
-1.117587e-07 -71.54028 42.2499 -0.004926655 -0.7582509 0.6519442 0 0 0 255 0.6672048 0.3821207
-1.77417e-07 -71.40583 42.4048 -0.004942588 -0.7070622 0.7071341 0 0 0 255 0.6672048 0.3804384
-0.2962202 -71.41096 42.42982 0.07746536 -0.7223297 0.6871966 0 0 0 255 0.6641519 0.3805027
-0.2881843 -71.13831 42.66693 0.1343248 -0.6269422 0.7673985 0 0 0 255 0.6642348 0.3770906
-0.564305 -71.09455 42.76886 0.1480612 -0.6428751 0.7515247 0 0 0 255 0.6613889 0.376543
-2.477318e-07 -71.13174 42.63592 -0.003764631 -0.6204812 0.7842124 0 0 0 255 0.6672048 0.3770083
-0.8162981 -70.93695 42.95062 0.05401618 -0.6550939 0.7536141 0 0 0 255 0.6587918 0.3745708
1.370461 -67.01032 45.36411 0.6330724 -0.1013796 0.7674252 150 150 150 255 0.280324 0.369277
1.616054 -67.56192 45.09989 0.7263751 -0.2248154 0.6494901 150 150 150 255 0.277601 0.3623743
0.989079 -66.66452 45.47643 0.1104914 -0.08550008 0.9901926 0 0 0 255 0.6773984 0.3211056
1.370461 -67.01032 45.36411 0.2341592 -0.1163532 0.9652106 0 0 0 255 0.681329 0.3254329
0.9333155 -66.86981 45.42983 -0.05127852 -0.2882581 0.9561788 0 0 0 255 0.6768237 0.3236747
1.288947 -67.18906 45.34179 0.12211 -0.2980879 0.9466957 0 0 0 255 0.680489 0.3276697
1.616054 -67.56192 45.09989 0.3961596 -0.229251 0.8891016 0 0 0 255 0.6838602 0.3323357
1.515974 -67.7004 45.11065 0.182144 -0.358826 0.9154603 0 0 0 255 0.6828288 0.3340687
0.517171 -66.48703 45.49625 -0.01785081 -0.1333138 0.9909132 0 0 0 255 0.6725349 0.3188846
0.4888628 -66.7046 45.43288 -0.08504067 -0.3297949 0.9402146 0 0 0 255 0.6722431 0.3216071
0.4555435 -67.04964 45.27585 -0.1305359 -0.4297578 0.8934588 0 0 0 255 0.6718997 0.325925
0.8648905 -67.19337 45.28986 -0.1605435 -0.402042 0.9014367 0 0 0 255 0.6761185 0.3277236
1.181844 -67.46284 45.2263 -0.0881338 -0.4070782 0.9091313 0 0 0 255 0.6793852 0.3310957
1.378713 -67.90112 45.03644 0.05087046 -0.4565784 0.8882277 0 0 0 255 0.6814141 0.3365804
0.3101332 -71.54507 42.2688 0.02165926 -0.9238055 0.3822488 150 150 150 255 0.4507475 0.120507
0.6138229 -71.48335 42.36087 0.2367891 -0.8945851 0.3790097 150 150 150 255 0.4516965 0.1243073
0.3101332 -71.54507 42.2688 -0.05088497 -0.7750915 0.6297967 0 0 0 255 0.6704011 0.3821807
0.6138229 -71.48335 42.36087 0.02776664 -0.7982305 0.6017119 0 0 0 255 0.6735311 0.3814086
0.5848382 -71.35507 42.53027 -0.02304353 -0.7453042 0.6663263 0 0 0 255 0.6732323 0.3798032
0.2962198 -71.41096 42.42982 -0.0833972 -0.7208572 0.6880478 0 0 0 255 0.6702577 0.3805027
0.9046258 -71.27906 42.56147 0.3645524 -0.8576061 0.3627856 150 150 150 255 0.4537639 0.1279465
1.176098 -70.8561 42.90596 0.6878608 -0.596285 0.413874 150 150 150 255 0.2549898 0.3211509
0.9046258 -71.27906 42.56147 0.6012849 -0.6998982 0.3854854 150 150 150 255 0.2514395 0.3158582
0.9046258 -71.27906 42.56147 0.2244128 -0.7857495 0.5763998 0 0 0 255 0.6765281 0.3788518
1.176098 -70.8561 42.90596 0.4297599 -0.7198251 0.5451222 0 0 0 255 0.6793259 0.3735591
1.110737 -70.77435 43.06544 0.2202056 -0.6964056 0.6830292 0 0 0 255 0.6786523 0.3725359
0.8582534 -71.16686 42.73147 0.1573721 -0.7375735 0.656673 0 0 0 255 0.6760502 0.377448
0.8162977 -70.93695 42.95062 -0.05838834 -0.6560413 0.752463 0 0 0 255 0.6756177 0.3745708
0.5643044 -71.09455 42.76886 -0.1517211 -0.6406685 0.7526783 0 0 0 255 0.6730207 0.376543
1.039593 -70.59918 43.24773 0.08787389 -0.6453893 0.7587825 0 0 0 255 0.677919 0.3703439
0.2881839 -71.13831 42.66693 -0.1389368 -0.6237606 0.7691678 0 0 0 255 0.6701748 0.3770906
1.421797 -70.1384 43.4297 0.7132403 -0.5247047 0.4647292 150 150 150 255 0.2603876 0.3301322
1.602902 -69.26047 44.03503 0.7516195 -0.4381535 0.4930412 150 150 150 255 0.2666263 0.3411188
1.502321 -69.28613 44.13328 0.6747909 -0.4714914 0.5677615 150 150 150 255 0.2676388 0.3407976
1.336561 -70.10551 43.56419 0.6438375 -0.5405588 0.5415437 150 150 150 255 0.2617736 0.3305438
1.110737 -70.77435 43.06544 0.5798128 -0.6037346 0.547103 150 150 150 255 0.2566335 0.3221741
1.680594 -68.3568 44.62431 0.7417306 -0.3520878 0.5708502 150 150 150 255 0.2726995 0.3524271
1.515974 -67.7004 45.11065 0.5992291 -0.3741203 0.7077842 150 150 150 255 0.2777117 0.3606414
1.574612 -68.44193 44.67828 0.6540942 -0.4092664 0.6361305 150 150 150 255 0.2732558 0.3513619
1.502321 -69.28613 44.13328 0.4001969 -0.5471944 0.7351332 0 0 0 255 0.6826881 0.3539124
1.574612 -68.44193 44.67828 0.3120703 -0.4775295 0.8213268 0 0 0 255 0.6834331 0.343348
1.427808 -68.55127 44.67156 0.1803486 -0.5101366 0.8409727 0 0 0 255 0.6819201 0.3447164
1.365865 -69.29522 44.2014 0.2355561 -0.5582452 0.7955349 0 0 0 255 0.6812817 0.3540261
1.336561 -70.10551 43.56419 0.3445114 -0.6186801 0.7060785 0 0 0 255 0.6809797 0.3641661
1.229621 -70.0149 43.69573 0.2126673 -0.6066222 0.7660171 0 0 0 255 0.6798776 0.3630322
3 0 1 2 
3 0 2 3 
3 1 4 5 
3 1 5 2 
3 2 5 6 
3 2 6 7 
3 3 2 7 
3 3 7 8 
3 4 9 10 
3 4 10 5 
3 9 11 12 
3 9 12 10 
3 10 12 13 
3 10 13 14 
3 5 10 14 
3 5 14 6 
3 6 14 15 
3 6 15 16 
3 14 13 17 
3 14 17 15 
3 15 17 18 
3 15 18 19 
3 16 15 19 
3 16 19 20 
3 8 7 21 
3 8 21 22 
3 7 6 16 
3 7 16 21 
3 21 16 20 
3 21 20 23 
3 22 21 23 
3 22 23 24 
3 25 26 27 
3 25 27 28 
3 26 29 30 
3 26 30 27 
3 27 30 31 
3 27 31 32 
3 28 27 32 
3 28 32 33 
3 29 34 35 
3 29 35 30 
3 34 11 9 
3 34 9 35 
3 35 9 4 
3 35 4 36 
3 30 35 36 
3 30 36 31 
3 31 36 37 
3 31 37 38 
3 36 4 1 
3 36 1 37 
3 37 1 0 
3 37 0 39 
3 38 37 39 
3 38 39 40 
3 33 32 41 
3 33 41 42 
3 32 31 38 
3 32 38 41 
3 41 38 40 
3 41 40 43 
3 42 41 43 
3 42 43 44 
3 45 46 47 
3 45 47 48 
3 46 49 50 
3 46 50 47 
3 47 50 51 
3 47 51 52 
3 48 47 52 
3 48 52 53 
3 54 55 56 
3 54 56 57 
3 55 58 59 
3 55 59 56 
3 56 59 60 
3 56 60 61 
3 57 56 61 
3 57 61 62 
3 62 61 63 
3 62 63 64 
3 61 60 65 
3 61 65 63 
3 63 65 66 
3 63 66 67 
3 68 69 70 
3 68 70 71 
3 53 52 72 
3 53 72 73 
3 52 51 68 
3 52 68 72 
3 72 68 71 
3 72 71 74 
3 73 72 74 
3 73 74 75 
3 58 76 77 
3 58 77 59 
3 76 78 79 
3 76 79 77 
3 77 79 80 
3 77 80 81 
3 59 77 81 
3 59 81 60 
3 78 82 83 
3 78 83 79 
3 82 84 85 
3 82 85 83 
3 83 85 86 
3 83 86 87 
3 79 83 87 
3 79 87 80 
3 80 87 88 
3 80 88 89 
3 87 86 90 
3 87 90 88 
3 88 90 91 
3 88 91 92 
3 89 88 92 
3 89 92 93 
3 60 81 94 
3 60 94 65 
3 81 80 89 
3 81 89 94 
3 94 89 93 
3 94 93 95 
3 65 94 95 
3 65 95 66 
3 84 96 97 
3 84 97 85 
3 96 98 99 
3 96 99 97 
3 97 99 100 
3 97 100 101 
3 85 97 101 
3 85 101 86 
3 102 103 104 
3 102 104 105 
3 103 106 107 
3 103 107 104 
3 104 107 108 
3 104 108 109 
3 105 104 109 
3 105 109 110 
3 110 109 111 
3 110 111 112 
3 109 108 113 
3 109 113 111 
3 111 113 114 
3 111 114 115 
3 112 111 115 
3 112 115 116 
3 86 101 117 
3 86 117 90 
3 101 100 118 
3 101 118 117 
3 119 112 116 
3 119 116 120 
3 90 117 121 
3 90 121 91 
3 122 123 124 
3 122 124 125 
3 123 126 127 
3 123 127 124 
3 124 127 128 
3 124 128 129 
3 125 124 129 
3 125 129 130 
3 131 132 133 
3 131 133 134 
3 132 45 48 
3 132 48 133 
3 133 48 53 
3 133 53 135 
3 134 133 135 
3 134 135 136 
3 136 135 137 
3 136 137 138 
3 135 53 73 
3 135 73 137 
3 137 73 75 
3 137 75 139 
3 138 137 139 
3 138 139 140 
3 130 129 141 
3 130 141 142 
3 129 128 143 
3 129 143 141 
3 144 138 140 
3 144 140 145 
3 142 141 146 
3 142 146 147 
3 106 148 149 
3 106 149 107 
3 148 150 151 
3 148 151 149 
3 149 151 152 
3 149 152 153 
3 107 149 153 
3 107 153 108 
3 154 155 156 
3 154 156 157 
3 155 158 159 
3 155 159 156 
3 156 159 160 
3 156 160 161 
3 157 156 161 
3 157 161 162 
3 162 161 163 
3 162 163 164 
3 161 160 165 
3 161 165 163 
3 163 165 166 
3 163 166 167 
3 168 169 170 
3 168 170 171 
3 108 153 172 
3 108 172 113 
3 153 152 168 
3 153 168 172 
3 172 168 171 
3 172 171 173 
3 113 172 173 
3 113 173 114 
3 158 174 175 
3 158 175 159 
3 174 176 177 
3 174 177 175 
3 175 177 178 
3 175 178 179 
3 159 175 179 
3 159 179 160 
3 176 180 181 
3 176 181 177 
3 180 122 125 
3 180 125 181 
3 181 125 130 
3 181 130 182 
3 177 181 182 
3 177 182 178 
3 178 182 183 
3 178 183 184 
3 182 130 142 
3 182 142 183 
3 183 142 147 
3 183 147 185 
3 184 183 185 
3 184 185 186 
3 160 179 187 
3 160 187 165 
3 179 178 184 
3 179 184 187 
3 187 184 186 
3 187 186 188 
3 165 187 188 
3 165 188 166 
3 75 74 189 
3 75 189 190 
3 74 71 191 
3 74 191 189 
3 189 191 192 
3 189 192 193 
3 190 189 193 
3 190 193 194 
3 71 70 195 
3 71 195 191 
3 67 66 196 
3 67 196 197 
3 195 198 199 
3 195 199 200 
3 191 195 200 
3 191 200 192 
3 192 200 201 
3 192 201 202 
3 200 199 203 
3 200 203 201 
3 201 203 18 
3 201 18 17 
3 202 201 17 
3 202 17 13 
3 194 193 204 
3 194 204 205 
3 193 192 202 
3 193 202 204 
3 204 202 13 
3 204 13 12 
3 205 204 12 
3 205 12 11 
3 66 95 206 
3 66 206 196 
3 95 93 207 
3 95 207 206 
3 206 207 208 
3 206 208 209 
3 196 206 209 
3 196 209 210 
3 93 92 211 
3 93 211 207 
3 92 91 212 
3 92 212 211 
3 211 212 213 
3 211 213 214 
3 207 211 214 
3 207 214 208 
3 215 216 217 
3 215 217 218 
3 216 219 220 
3 216 220 217 
3 217 220 24 
3 217 24 23 
3 218 217 23 
3 218 23 20 
3 199 221 222 
3 199 222 203 
3 221 215 218 
3 221 218 222 
3 222 218 20 
3 222 20 19 
3 203 222 19 
3 203 19 18 
3 91 121 223 
3 91 223 212 
3 120 116 224 
3 120 224 225 
3 226 227 228 
3 226 228 229 
3 230 226 229 
3 230 229 219 
3 116 115 231 
3 116 231 224 
3 115 114 232 
3 115 232 231 
3 233 234 235 
3 233 235 236 
3 227 233 236 
3 227 236 228 
3 228 236 237 
3 228 237 238 
3 236 235 239 
3 236 239 237 
3 237 239 0 
3 237 0 3 
3 238 237 3 
3 238 3 8 
3 219 229 240 
3 219 240 220 
3 229 228 238 
3 229 238 240 
3 240 238 8 
3 240 8 22 
3 220 240 22 
3 220 22 24 
3 147 146 241 
3 147 241 242 
3 145 140 243 
3 145 243 244 
3 244 243 245 
3 244 245 246 
3 247 244 246 
3 247 246 248 
3 140 139 249 
3 140 249 243 
3 139 75 190 
3 139 190 249 
3 249 190 194 
3 249 194 250 
3 243 249 250 
3 243 250 245 
3 245 250 251 
3 245 251 252 
3 250 194 205 
3 250 205 251 
3 251 205 11 
3 251 11 34 
3 252 251 34 
3 252 34 29 
3 248 246 253 
3 248 253 254 
3 246 245 252 
3 246 252 253 
3 253 252 29 
3 253 29 26 
3 254 253 26 
3 254 26 25 
3 114 173 255 
3 114 255 232 
3 173 171 256 
3 173 256 255 
3 257 258 259 
3 257 259 260 
3 234 257 260 
3 234 260 235 
3 171 170 261 
3 171 261 256 
3 167 166 262 
3 167 262 263 
3 264 265 266 
3 264 266 267 
3 258 264 267 
3 258 267 259 
3 259 267 268 
3 259 268 269 
3 267 266 270 
3 267 270 268 
3 268 270 44 
3 268 44 43 
3 269 268 43 
3 269 43 40 
3 235 260 271 
3 235 271 239 
3 260 259 269 
3 260 269 271 
3 271 269 40 
3 271 40 39 
3 239 271 39 
3 239 39 0 
3 166 188 272 
3 166 272 262 
3 188 186 273 
3 188 273 272 
3 272 273 274 
3 272 274 275 
3 262 272 275 
3 262 275 276 
3 186 185 277 
3 186 277 273 
3 185 147 242 
3 185 242 277 
3 277 242 278 
3 277 278 279 
3 273 277 279 
3 273 279 274 
3 280 281 282 
3 280 282 283 
3 281 248 254 
3 281 254 282 
3 282 254 25 
3 282 25 28 
3 283 282 28 
3 283 28 33 
3 266 284 285 
3 266 285 270 
3 284 280 283 
3 284 283 285 
3 285 283 33 
3 285 33 42 
3 270 285 42 
3 270 42 44 
